<?xml version="1.0" encoding="UTF-8"?>
<svg xmlns="http://www.w3.org/2000/svg" id="Layer_1" data-name="Layer 1" viewBox="0 0 512 512" width="512" height="512"><path d="M389.181,186.974a33.642,33.642,0,0,0-8.869-54,44.868,44.868,0,0,0-53.2-54.639c.089-.938.149-1.88.149-2.826a30.13,30.13,0,1,0-60.259,0V113h-5V94.724a6,6,0,1,0-12,0V113h-5V75.512a30.169,30.169,0,1,0-60.337,0c0,.946.1,1.888.188,2.826a44.793,44.793,0,0,0-53.168,54.639,33.752,33.752,0,0,0-8.865,54,44.829,44.829,0,0,0-14.9,33.283c0,18.839,12.086,34.991,28.086,41.626v9.86a35.228,35.228,0,0,0,51.794,31A34.932,34.932,0,0,0,245,275.629V247h5v18.276a6,6,0,1,0,12,0V247h5v28.629a34.958,34.958,0,0,0,57.241,27.119,35.2,35.2,0,0,0,51.759-31v-9.86c16-6.635,28.086-22.787,28.086-41.626A44.83,44.83,0,0,0,389.181,186.974ZM233,275.629a22.956,22.956,0,0,1-35.49,19.418,35.032,35.032,0,0,0,8.908-23.3,5.986,5.986,0,1,0-11.971,0,23.224,23.224,0,0,1-46.447,0v-6.874c2,.16,3.189.245,4.771.245a6,6,0,1,0,.065-12,32.857,32.857,0,0,1,.016-65.714,6,6,0,0,0,0-12,44.571,44.571,0,0,0-19.826,4.633,21.722,21.722,0,0,1,1.7-35q.687-.456,1.4-.857c.076.135.141.275.219.409a6,6,0,0,0,10.386-6.011A32.863,32.863,0,0,1,194.7,95.694a6,6,0,1,0,7.129-9.652q-1.461-1.08-2.988-2.03a18.167,18.167,0,1,1,34.16-8.5V113h-4V94.724a6,6,0,1,0-12,0V113h-4.258A23.589,23.589,0,0,0,189,136.742V141H170.724a6,6,0,0,0,0,12H189v21H170.724a6,6,0,0,0,0,12H189v21H170.724a6,6,0,0,0,0,12H189v4.258A23.589,23.589,0,0,0,212.742,247H217v18.276a6,6,0,0,0,12,0V247h4ZM213,236a12,12,0,0,1-12-12V137a12,12,0,0,1,12-12h87a12,12,0,0,1,12,12v87a12,12,0,0,1-12,12Zm146.143,17.114a6,6,0,0,0-6,6,6.074,6.074,0,0,0,6.086,6c1.582,0,2.771-.085,4.771-.245v6.874a23.207,23.207,0,0,1-46.414,0,6.016,6.016,0,0,0-12.032,0,34.989,34.989,0,0,0,8.864,23.3,22.682,22.682,0,0,1-12.431,3.724A23.037,23.037,0,0,1,279,275.629V247h4v18.276a6,6,0,1,0,12,0V247h4.258A23.589,23.589,0,0,0,323,223.258V219h18.276a6,6,0,1,0,0-12H323V186h18.276a6,6,0,1,0,0-12H323V153h18.276a6,6,0,0,0,0-12H323v-4.258A23.589,23.589,0,0,0,299.258,113H295V94.724a6,6,0,1,0-12,0V113h-4V75.512a18.169,18.169,0,1,1,36.337,0,18.384,18.384,0,0,1-2.138,8.5c-1.017.634-2.034,1.31-3.008,2.03a6,6,0,1,0,7.115,9.652,32.863,32.863,0,0,1,47.957,42.878,6,6,0,1,0,10.385,6.011c.078-.134.143-.274.219-.409q.714.4,1.4.857a21.719,21.719,0,0,1,1.7,35,44.571,44.571,0,0,0-19.826-4.633,6,6,0,0,0,0,12,32.857,32.857,0,1,1,0,65.714Z"/><path d="M303,221V140a6,6,0,0,0-6-6H216a6,6,0,0,0-6,6v81a6,6,0,0,0,6,6h81A6,6,0,0,0,303,221Zm-13-7H222V146h68Z"/><path d="M236,207h41a6,6,0,0,0,6-6V160a6,6,0,0,0-6-6H236a6,6,0,0,0-6,6v41A6,6,0,0,0,236,207Zm6-41h28v28H242Z"/><path d="M474.853,25H38.205A27.005,27.005,0,0,0,11,51.886V375.444C11,390.414,23.236,403,38.205,403H189v25.393a15.069,15.069,0,0,1-15.035,15.148,37.6,37.6,0,0,0-37.664,37.59A5.939,5.939,0,0,0,142.357,487h222.05a5.89,5.89,0,0,0,6-5.869,37.511,37.511,0,0,0-37.491-37.656A14.913,14.913,0,0,1,318,428.393V403H474.853C489.821,403,502,390.414,502,375.444V51.886A26.956,26.956,0,0,0,474.853,25ZM332.916,455.41A25.712,25.712,0,0,1,357.7,475H149.063a25.848,25.848,0,0,1,24.9-19.59A26.971,26.971,0,0,0,201,428.393V403H306v25.393A26.87,26.87,0,0,0,332.916,455.41ZM490,375.444c0,8.353-6.8,15.556-15.147,15.556H38.205c-8.352,0-15.2-7.2-15.2-15.556V329H490ZM490,317H23V51.886A14.993,14.993,0,0,1,38.205,37H474.853A14.943,14.943,0,0,1,490,51.886Z"/><path d="M253.382,376.157a16.574,16.574,0,1,0-16.573-16.574A16.593,16.593,0,0,0,253.382,376.157Zm0-21.147a4.574,4.574,0,1,1-4.573,4.573A4.579,4.579,0,0,1,253.382,355.01Z"/><path d="M46,56a6,6,0,0,0-6,6v2a6,6,0,0,0,12,0V62A6,6,0,0,0,46,56Z"/><path d="M46,78a6,6,0,0,0-6,6v82a6,6,0,0,0,12,0V84A6,6,0,0,0,46,78Z"/></svg>
